<?xml version="1.0" encoding="UTF-8"?>
<svg xmlns="http://www.w3.org/2000/svg" xmlns:xlink="http://www.w3.org/1999/xlink" width="50pt" height="50pt" viewBox="0 0 50 50" version="1.1">
<g id="surface1">
<path style=" stroke:none;fill-rule:nonzero;fill:rgb(100%,38.823529%,48.235294%);fill-opacity:1;" d="M 13.730469 18.535156 C 10.648438 18.113281 7.054688 19.445312 4.574219 21.929688 L 0.429688 26.070312 C -0.0390625 26.539062 -0.136719 27.265625 0.195312 27.839844 C 0.519531 28.40625 1.199219 28.695312 1.84375 28.523438 C 4.472656 27.816406 7.953125 27.582031 8.808594 28.234375 Z M 13.730469 18.535156 "/>
<path style=" stroke:none;fill-rule:nonzero;fill:rgb(90.196078%,22.352941%,31.372549%);fill-opacity:1;" d="M 31.378906 36.292969 L 21.660156 40.980469 C 22.203125 41.71875 22.160156 44.050781 21.527344 48.320312 C 21.433594 48.953125 21.761719 49.5625 22.316406 49.84375 C 22.882812 50.128906 23.566406 50.019531 24.011719 49.570312 L 28.15625 45.425781 C 30.496094 43.085938 31.761719 39.5 31.378906 36.292969 Z M 31.378906 36.292969 "/>
<path style=" stroke:none;fill-rule:nonzero;fill:rgb(48.627451%,51.372549%,53.333333%);fill-opacity:1;" d="M 23.121094 41.480469 C 19.703125 43.324219 19.269531 43.425781 18.75 43.777344 C 18.171875 44.152344 17.425781 44.070312 16.925781 43.570312 L 6.570312 33.214844 C 6.09375 32.738281 5.988281 31.972656 6.363281 31.390625 C 6.714844 30.871094 6.757812 30.542969 8.621094 26.980469 L 12.722656 26.9375 L 23.078125 37.296875 Z M 23.121094 41.480469 "/>
<path style=" stroke:none;fill-rule:nonzero;fill:rgb(34.117647%,37.254902%,39.215686%);fill-opacity:1;" d="M 23.121094 41.480469 C 19.703125 43.324219 19.269531 43.425781 18.75 43.777344 C 18.171875 44.152344 17.425781 44.070312 16.925781 43.570312 L 11.75 38.394531 L 17.964844 32.179688 L 23.078125 37.296875 Z M 23.121094 41.480469 "/>
<path style=" stroke:none;fill-rule:nonzero;fill:rgb(98.039216%,92.54902%,84.705882%);fill-opacity:1;" d="M 23.121094 41.480469 L 8.621094 26.980469 C 15.808594 13.410156 24.445312 4.9375 34.472656 1.621094 L 41.515625 8.625 L 48.394531 15.503906 C 45.082031 25.488281 36.628906 34.1875 23.121094 41.480469 Z M 23.121094 41.480469 "/>
<path style=" stroke:none;fill-rule:nonzero;fill:rgb(95.686275%,84.313725%,68.627451%);fill-opacity:1;" d="M 23.121094 41.480469 L 15.890625 34.25 L 41.515625 8.625 L 48.394531 15.5 C 45.082031 25.488281 36.628906 34.1875 23.121094 41.480469 Z M 23.121094 41.480469 "/>
<path style=" stroke:none;fill-rule:nonzero;fill:rgb(39.215686%,88.235294%,86.27451%);fill-opacity:1;" d="M 37 13.140625 L 36.9375 13.078125 C 34.082031 10.21875 29.441406 10.21875 26.582031 13.078125 C 23.722656 15.9375 23.722656 20.578125 26.582031 23.4375 L 26.644531 23.5 C 29.5 26.273438 34.101562 26.273438 36.9375 23.4375 C 39.777344 20.597656 39.777344 16 37 13.140625 Z M 37 13.140625 "/>
<path style=" stroke:none;fill-rule:nonzero;fill:rgb(0%,78.431373%,78.431373%);fill-opacity:1;" d="M 36.9375 23.4375 C 34.101562 26.273438 29.5 26.273438 26.644531 23.5 L 37 13.140625 C 39.777344 16 39.777344 20.597656 36.9375 23.4375 Z M 36.9375 23.4375 "/>
<path style=" stroke:none;fill-rule:nonzero;fill:rgb(100%,38.823529%,48.235294%);fill-opacity:1;" d="M 48.394531 15.5 C 45.226562 15.273438 41.828125 13.78125 39.074219 11.070312 L 39.011719 11.007812 C 36.234375 8.230469 34.679688 4.8125 34.472656 1.621094 C 35.425781 1.289062 36.398438 1.019531 37.375 0.792969 C 40.917969 -0.015625 44.625 -0.199219 48.476562 0.214844 C 48.851562 0.253906 49.203125 0.441406 49.410156 0.730469 C 49.617188 0.9375 49.761719 1.207031 49.78125 1.519531 C 50.21875 5.351562 49.988281 9.058594 49.183594 12.601562 C 48.953125 13.574219 48.707031 14.527344 48.394531 15.5 Z M 48.394531 15.5 "/>
<path style=" stroke:none;fill-rule:nonzero;fill:rgb(90.196078%,22.352941%,31.372549%);fill-opacity:1;" d="M 48.394531 15.5 C 45.226562 15.273438 41.828125 13.78125 39.074219 11.070312 L 49.410156 0.730469 C 49.617188 0.9375 49.761719 1.207031 49.78125 1.519531 C 50.21875 5.351562 49.988281 9.058594 49.183594 12.601562 C 48.953125 13.574219 48.707031 14.527344 48.394531 15.5 Z M 48.394531 15.5 "/>
<path style=" stroke:none;fill-rule:nonzero;fill:rgb(100%,38.823529%,48.235294%);fill-opacity:1;" d="M 22.871094 28.59375 C 22.851562 28.242188 22.707031 27.929688 22.457031 27.683594 C 22.210938 27.351562 21.816406 27.125 21.402344 27.125 C 16.015625 27.082031 14.8125 28.988281 14.503906 29.296875 C 5.535156 38.269531 5.429688 42.679688 5.429688 43.136719 C 5.449219 43.53125 5.59375 43.882812 5.863281 44.152344 C 5.886719 44.171875 5.90625 44.195312 5.949219 44.195312 C 6.15625 44.402344 6.445312 44.523438 6.753906 44.546875 C 7.5 44.628906 11.707031 44.523438 20.71875 35.511719 C 22.75 33.484375 22.894531 31.597656 22.871094 28.59375 Z M 22.871094 28.59375 "/>
<path style=" stroke:none;fill-rule:nonzero;fill:rgb(90.196078%,22.352941%,31.372549%);fill-opacity:1;" d="M 22.871094 28.59375 C 22.894531 31.597656 22.75 33.484375 20.71875 35.511719 C 11.707031 44.523438 7.5 44.628906 6.757812 44.546875 C 6.445312 44.523438 6.15625 44.402344 5.949219 44.195312 L 22.457031 27.683594 C 22.707031 27.929688 22.851562 28.242188 22.871094 28.59375 Z M 22.871094 28.59375 "/>
</g>
</svg>
